<?xml version="1.0" standalone="no"?>
<!DOCTYPE svg PUBLIC "-//W3C//DTD SVG 20010904//EN"
 "http://www.w3.org/TR/2001/REC-SVG-20010904/DTD/svg10.dtd">
<svg version="1.0" xmlns="http://www.w3.org/2000/svg"
 width="529.000000pt" height="529.000000pt" viewBox="0 0 529.000000 529.000000"
 preserveAspectRatio="xMidYMid meet">
<metadata>
Created by potrace 1.14, written by Peter Selinger 2001-2017
</metadata>
<g transform="translate(0.000000,529.000000) scale(0.100000,-0.100000)"
fill="#000000" stroke="none">
<path d="M517 4947 c-410 -605 -507 -750 -507 -758 0 -5 48 -114 106 -242 208
-454 326 -713 346 -757 11 -25 41 -88 65 -140 l45 -95 -47 -40 c-26 -22 -67
-58 -92 -80 l-44 -40 151 -535 c84 -294 158 -557 165 -585 8 -27 46 -165 85
-305 40 -140 91 -322 114 -405 l41 -150 145 -72 c80 -40 231 -114 335 -164
105 -51 295 -143 423 -206 l233 -113 568 0 568 0 84 41 c93 46 277 135 624
302 127 61 275 133 330 161 l100 51 46 165 c69 245 294 1045 409 1451 55 196
100 360 100 365 -1 5 -22 26 -48 46 -26 21 -68 57 -94 80 l-47 43 72 155 c72
157 113 244 163 355 15 33 46 101 69 150 23 50 90 197 150 327 l108 238 -66
97 c-36 54 -101 150 -144 213 -43 63 -140 206 -216 318 -76 111 -142 202 -148
202 -5 0 -128 -66 -272 -146 -144 -81 -284 -159 -312 -174 -27 -15 -108 -60
-180 -100 -71 -40 -155 -87 -185 -103 -30 -16 -84 -47 -120 -67 -36 -21 -92
-52 -125 -70 -33 -18 -73 -41 -90 -50 -140 -78 -187 -101 -198 -97 -10 5 -92
72 -197 161 -14 11 -95 79 -180 150 -85 71 -164 138 -176 148 -23 21 -12 26
-129 -70 -52 -42 -321 -268 -331 -277 -7 -5 -31 -26 -54 -45 -23 -19 -54 -45
-68 -57 -14 -13 -26 -23 -27 -23 -1 0 -72 39 -156 86 -85 47 -183 102 -219
122 -36 19 -119 65 -185 102 -66 37 -147 82 -180 100 -52 29 -418 233 -515
287 -19 11 -62 35 -95 53 -33 18 -79 43 -101 56 l-42 22 -55 -81z"/>
</g>
</svg>
